<mxfile host="app.diagrams.net" modified="2023-08-15T10:22:11.433Z" agent="Mozilla/5.0 (Windows NT 10.0; Win64; x64) AppleWebKit/537.36 (KHTML, like Gecko) Chrome/115.0.0.0 Safari/537.36" etag="vnV6s2Yk7JruojEYUaCz" version="21.6.6" type="device">
  <diagram name="Trang-1" id="Ty3OnJy3d9k21lMeHWoS">
    <mxGraphModel dx="1050" dy="566" grid="1" gridSize="10" guides="1" tooltips="1" connect="1" arrows="1" fold="1" page="1" pageScale="1" pageWidth="827" pageHeight="1169" math="0" shadow="0">
      <root>
        <mxCell id="0" />
        <mxCell id="1" parent="0" />
        <mxCell id="ihgnEHVelhaL6ARLOU0o-6" value="" style="whiteSpace=wrap;html=1;aspect=fixed;" vertex="1" parent="1">
          <mxGeometry x="90" y="170" width="210" height="210" as="geometry" />
        </mxCell>
        <mxCell id="ihgnEHVelhaL6ARLOU0o-12" value="Transport" style="rounded=0;whiteSpace=wrap;html=1;" vertex="1" parent="1">
          <mxGeometry x="90" y="220" width="210" height="40" as="geometry" />
        </mxCell>
        <mxCell id="ihgnEHVelhaL6ARLOU0o-13" value="Network" style="rounded=0;whiteSpace=wrap;html=1;" vertex="1" parent="1">
          <mxGeometry x="90" y="260" width="210" height="40" as="geometry" />
        </mxCell>
        <mxCell id="ihgnEHVelhaL6ARLOU0o-14" value="Link" style="rounded=0;whiteSpace=wrap;html=1;" vertex="1" parent="1">
          <mxGeometry x="90" y="300" width="210" height="40" as="geometry" />
        </mxCell>
        <mxCell id="ihgnEHVelhaL6ARLOU0o-15" value="Application" style="text;strokeColor=none;fillColor=none;align=left;verticalAlign=middle;spacingLeft=4;spacingRight=4;overflow=hidden;points=[[0,0.5],[1,0.5]];portConstraint=eastwest;rotatable=0;whiteSpace=wrap;html=1;" vertex="1" parent="1">
          <mxGeometry x="155" y="180" width="80" height="30" as="geometry" />
        </mxCell>
        <mxCell id="ihgnEHVelhaL6ARLOU0o-16" value="Physical" style="text;html=1;strokeColor=none;fillColor=none;align=center;verticalAlign=middle;whiteSpace=wrap;rounded=0;" vertex="1" parent="1">
          <mxGeometry x="165" y="350" width="60" height="30" as="geometry" />
        </mxCell>
        <mxCell id="ihgnEHVelhaL6ARLOU0o-17" value="" style="whiteSpace=wrap;html=1;aspect=fixed;" vertex="1" parent="1">
          <mxGeometry x="580" y="170" width="210" height="210" as="geometry" />
        </mxCell>
        <mxCell id="ihgnEHVelhaL6ARLOU0o-19" value="Transport" style="rounded=0;whiteSpace=wrap;html=1;" vertex="1" parent="1">
          <mxGeometry x="580" y="220" width="210" height="40" as="geometry" />
        </mxCell>
        <mxCell id="ihgnEHVelhaL6ARLOU0o-20" value="Network" style="rounded=0;whiteSpace=wrap;html=1;" vertex="1" parent="1">
          <mxGeometry x="580" y="260" width="210" height="40" as="geometry" />
        </mxCell>
        <mxCell id="ihgnEHVelhaL6ARLOU0o-21" value="Network" style="rounded=0;whiteSpace=wrap;html=1;" vertex="1" parent="1">
          <mxGeometry x="90" y="260" width="210" height="40" as="geometry" />
        </mxCell>
        <mxCell id="ihgnEHVelhaL6ARLOU0o-22" value="Link" style="rounded=0;whiteSpace=wrap;html=1;" vertex="1" parent="1">
          <mxGeometry x="580" y="300" width="210" height="40" as="geometry" />
        </mxCell>
        <mxCell id="ihgnEHVelhaL6ARLOU0o-23" value="Physical" style="text;html=1;strokeColor=none;fillColor=none;align=center;verticalAlign=middle;whiteSpace=wrap;rounded=0;" vertex="1" parent="1">
          <mxGeometry x="655" y="350" width="60" height="30" as="geometry" />
        </mxCell>
        <mxCell id="ihgnEHVelhaL6ARLOU0o-24" value="Application" style="text;strokeColor=none;fillColor=none;align=left;verticalAlign=middle;spacingLeft=4;spacingRight=4;overflow=hidden;points=[[0,0.5],[1,0.5]];portConstraint=eastwest;rotatable=0;whiteSpace=wrap;html=1;" vertex="1" parent="1">
          <mxGeometry x="655" y="180" width="80" height="30" as="geometry" />
        </mxCell>
        <mxCell id="ihgnEHVelhaL6ARLOU0o-25" value="" style="endArrow=classic;html=1;rounded=0;entryX=0.5;entryY=1;entryDx=0;entryDy=0;" edge="1" parent="1" source="ihgnEHVelhaL6ARLOU0o-12" target="ihgnEHVelhaL6ARLOU0o-19">
          <mxGeometry width="50" height="50" relative="1" as="geometry">
            <mxPoint x="390" y="320" as="sourcePoint" />
            <mxPoint x="690" y="400" as="targetPoint" />
            <Array as="points">
              <mxPoint x="195" y="400" />
              <mxPoint x="685" y="400" />
            </Array>
          </mxGeometry>
        </mxCell>
      </root>
    </mxGraphModel>
  </diagram>
</mxfile>
